<?xml version="1.0" encoding="utf-8"?>
<!-- Generator: Adobe Illustrator 19.1.0, SVG Export Plug-In . SVG Version: 6.00 Build 0)  -->
<svg version="1.1" xmlns="http://www.w3.org/2000/svg" xmlns:xlink="http://www.w3.org/1999/xlink" x="0px" y="0px"
	 viewBox="0 0 612 351.6" style="enable-background:new 0 0 612 351.6;" xml:space="preserve">
<style type="text/css">
	.st0{opacity:0.3;fill:#1E79BF;}
	.st1{fill:none;stroke:#1D79BF;stroke-width:2;stroke-miterlimit:10;}
	.st2{opacity:0.3;fill:#F36D3E;}
	.st3{fill:none;stroke:#F36D3E;stroke-width:2;stroke-linecap:round;stroke-linejoin:bevel;}
	.st4{fill:none;stroke:#F36D3E;stroke-width:2;stroke-linecap:round;stroke-linejoin:bevel;stroke-dasharray:9.9139,3.9656;}
	.st5{fill:none;stroke:#F36D3E;stroke-width:2;stroke-linecap:round;stroke-linejoin:bevel;stroke-dasharray:10.3819,4.1528;}
	.st6{fill:none;stroke:#676767;stroke-miterlimit:10;}
	.st7{fill:#434343;}
	.st8{font-family:'UniversNextPro-Regular';}
	.st9{font-size:12px;}
	.st10{fill:#AF4C29;}
</style>
<g id="Layer_1">
	<rect x="54.5" y="14.2" class="st0" width="77.3" height="315.3"/>
	<polyline class="st1" points="22.1,314.8 54.9,310.8 131.3,180.1 196.1,168.1 	"/>
	<rect x="471.9" y="14.2" class="st2" width="79.1" height="315.3"/>
	<g>
		<g>
			<line class="st3" x1="417.6" y1="290.6" x2="422.2" y2="288.7"/>
			<polyline class="st4" points="425.9,287.1 472.4,267.5 547.2,146.9 			"/>
			<polyline class="st3" points="548.2,145.2 550.9,141 555.8,140.1 			"/>
			<line class="st5" x1="559.9" y1="139.3" x2="586.4" y2="134.4"/>
			<line class="st3" x1="588.4" y1="134" x2="593.4" y2="133.1"/>
		</g>
	</g>
	<rect x="450" y="14.2" class="st0" width="77.3" height="315.3"/>
	<polyline class="st1" points="417.6,306.8 450.4,302.8 526.8,180.1 591.6,168.1 	"/>
	<rect x="274.2" y="14.2" class="st2" width="79.1" height="315.3"/>
	<g>
		<g>
			<line class="st3" x1="220" y1="290.6" x2="224.6" y2="288.7"/>
			<polyline class="st4" points="228.2,287.1 274.7,267.5 349.5,146.9 			"/>
			<polyline class="st3" points="350.6,145.2 353.2,141 358.1,140.1 			"/>
			<line class="st5" x1="362.2" y1="139.3" x2="388.7" y2="134.4"/>
			<line class="st3" x1="390.8" y1="134" x2="395.7" y2="133.1"/>
		</g>
	</g>
</g>
<g id="Layer_2">
	<rect x="22.1" y="14.2" class="st6" width="182.3" height="315.3"/>
	<rect x="219.2" y="14.2" class="st6" width="182.3" height="315.3"/>
	<rect x="417.6" y="14.2" class="st6" width="182.3" height="315.3"/>
	<text transform="matrix(1 0 0 1 74.0072 9.9997)" class="st7 st8 st9">Target Protein</text>
	<text transform="matrix(0 -1 1 0 14.5397 189.1572)" class="st7 st8 st9">Signal</text>
	<text transform="matrix(1 0 0 1 247.8969 9.9998)" class="st7 st8 st9">Normalization Method</text>
	<text transform="matrix(1 0 0 1 479.5403 9.9999)" class="st7 st8 st9">Combined</text>
	<text transform="matrix(1 0 0 1 56.8597 342.4934)" class="st7 st8 st9">Protein Amount (2x)</text>
	<text transform="matrix(1 0 0 1 254.3409 342.4933)" class="st7 st8 st9">Protein Amount (2x)</text>
	<text transform="matrix(1 0 0 1 452.2412 342.4933)" class="st7 st8 st9">Protein Amount (2x)</text>
	<text transform="matrix(1 0 0 1 77.0072 25.5007)"><tspan x="0" y="0" class="st7 st8 st9">Linear</tspan><tspan x="0" y="14.4" class="st7 st8 st9">Range</tspan></text>
	<text transform="matrix(1 0 0 1 296.3678 25.5009)"><tspan x="0" y="0" class="st7 st8 st9">Linear</tspan><tspan x="0" y="14.4" class="st7 st8 st9">Range</tspan></text>
	<text transform="matrix(1 0 0 1 483.0546 25.5004)"><tspan x="0" y="0" class="st7 st8 st9">Linear</tspan><tspan x="0" y="14.4" class="st7 st8 st9">Range</tspan></text>
</g>
<g id="Layer_3">
	<g>
		<polygon class="st10" points="311.2,214.8 313.1,220.1 315.5,219.2 313.5,213.9 310.4,209.1 		"/>
		<polygon class="st10" points="309.6,203.5 307.7,198.2 305.3,199.1 307.2,204.3 310.4,209.1 		"/>
		<polygon class="st10" points="316,208.2 321.3,206.3 320.4,203.9 315.1,205.8 310.3,209 		"/>
		<polygon class="st10" points="304.6,209.7 299.4,211.7 300.3,214.1 305.5,212.1 310.3,209 		"/>
	</g>
	<g>
		<polygon class="st10" points="96.1,248.5 98,253.7 100.4,252.9 98.5,247.6 95.3,242.8 		"/>
		<polygon class="st10" points="94.5,237.1 92.6,231.9 90.2,232.8 92.2,238 95.3,242.8 		"/>
		<polygon class="st10" points="100.9,241.9 106.2,239.9 105.3,237.5 100,239.5 95.2,242.6 		"/>
		<polygon class="st10" points="89.5,243.4 84.3,245.3 85.2,247.7 90.4,245.8 95.2,242.6 		"/>
	</g>
	<g>
		<polygon class="st10" points="497.3,234.9 499.3,240.2 501.7,239.3 499.7,234 496.6,229.2 		"/>
		<polygon class="st10" points="495.8,223.5 493.9,218.3 491.5,219.2 493.4,224.4 496.6,229.2 		"/>
		<polygon class="st10" points="502.2,228.3 507.4,226.3 506.5,223.9 501.3,225.9 496.5,229 		"/>
		<polygon class="st10" points="490.8,229.8 485.6,231.8 486.5,234.1 491.7,232.2 496.5,229 		"/>
	</g>
</g>
</svg>
